<?xml version="1.0" encoding="UTF-8" standalone="no"?>
<!-- Created with Inkscape (http://www.inkscape.org/) -->

<svg
   xmlns:dc="http://purl.org/dc/elements/1.1/"
   xmlns:cc="http://creativecommons.org/ns#"
   xmlns:rdf="http://www.w3.org/1999/02/22-rdf-syntax-ns#"
   xmlns:svg="http://www.w3.org/2000/svg"
   xmlns="http://www.w3.org/2000/svg"
   xmlns:sodipodi="http://sodipodi.sourceforge.net/DTD/sodipodi-0.dtd"
   xmlns:inkscape="http://www.inkscape.org/namespaces/inkscape"
   width="50mm"
   height="50mm"
   viewBox="0 0 177.16536 177.16536"
   id="svg4136"
   version="1.1"
   inkscape:version="0.91 r13725"
   sodipodi:docname="SnoopX.svg">
  <defs
     id="defs4138">
    <clipPath
       id="clipPath4709"
       clipPathUnits="userSpaceOnUse">
      <path
         inkscape:connector-curvature="0"
         id="path4711"
         d="M 0,560 960,560 960,0 0,0 0,560 Z" />
    </clipPath>
  </defs>
  <sodipodi:namedview
     id="base"
     pagecolor="#ffffff"
     bordercolor="#666666"
     borderopacity="1.0"
     inkscape:pageopacity="0.0"
     inkscape:pageshadow="2"
     inkscape:zoom="0.98994949"
     inkscape:cx="36.430059"
     inkscape:cy="247.06394"
     inkscape:document-units="px"
     inkscape:current-layer="layer1"
     showgrid="false"
     inkscape:window-width="1440"
     inkscape:window-height="841"
     inkscape:window-x="-8"
     inkscape:window-y="-8"
     inkscape:window-maximized="1" />
  <metadata
     id="metadata4141">
    <rdf:RDF>
      <cc:Work
         rdf:about="">
        <dc:format>image/svg+xml</dc:format>
        <dc:type
           rdf:resource="http://purl.org/dc/dcmitype/StillImage" />
        <dc:title></dc:title>
      </cc:Work>
    </rdf:RDF>
  </metadata>
  <g
     inkscape:label="Layer 1"
     inkscape:groupmode="layer"
     id="layer1"
     transform="translate(0,-875.19685)">
    <g
       transform="matrix(1.25,0,0,-1.25,-255.39056,1370.8117)"
       inkscape:label="SnoopX"
       id="g4703">
      <g
         id="g4705">
        <g
           clip-path="url(#clipPath4709)"
           id="g4707">
          <g
             transform="translate(281.715,364.631)"
             id="g4713">
            <path
               inkscape:connector-curvature="0"
               id="path4715"
               style="fill:#000000;fill-opacity:1;fill-rule:nonzero;stroke:none"
               d="m 0,0 c -11.636,5.171 -32.05,1.932 -34.961,-14.189 -0.431,-2.385 0.6,-5.492 -0.178,-7.753 -0.959,-2.788 -2.376,-2.735 -3.899,-5.282 -2.246,-3.757 -4.91,-7.317 -0.344,-10.075 1.972,-1.192 11.773,-0.875 14.438,-1.018 2.799,-0.15 6.57,1.352 9.043,1.928 6.762,1.575 7.261,3.758 13.028,8.758 l -0.138,0 c 3.954,-1 15.316,-8.197 18.876,-7.101 0.621,3.812 -0.09,8.733 0.204,12.689 C 16.148,-20.974 10.94,-4.862 0,0" />
          </g>
          <g
             transform="translate(266.7249,319.7778)"
             id="g4717">
            <path
               inkscape:connector-curvature="0"
               id="path4719"
               style="fill:#000000;fill-opacity:1;fill-rule:nonzero;stroke:none"
               d="m 0,0 c -0.189,-2.294 -4.923,-5.887 -6.388,-8.229 -1.837,-2.938 -2.868,-5.877 -3.836,-9.337 -0.174,-0.724 -2.593,4.426 -2.852,4.608 -0.723,0.509 -6.568,-0.045 -7.174,-0.664 -4.52,-4.616 4.176,-14.38 9.953,-12.307 4.912,1.762 6.681,8.902 7.235,13.048 0.495,3.708 -0.343,5.197 2.144,8.273 0.996,1.232 4.883,3.875 4.847,5.505 C 2.619,0.598 1.31,0.299 0,0 -0.03,-0.368 1.31,0.299 0,0" />
          </g>
        </g>
      </g>
    </g>
  </g>
</svg>
