<?xml version="1.0" encoding="UTF-8" standalone="no"?>
<!-- Created with Inkscape (http://www.inkscape.org/) -->

<svg
   xmlns:dc="http://purl.org/dc/elements/1.1/"
   xmlns:cc="http://creativecommons.org/ns#"
   xmlns:rdf="http://www.w3.org/1999/02/22-rdf-syntax-ns#"
   xmlns:svg="http://www.w3.org/2000/svg"
   xmlns="http://www.w3.org/2000/svg"
   xmlns:sodipodi="http://sodipodi.sourceforge.net/DTD/sodipodi-0.dtd"
   xmlns:inkscape="http://www.inkscape.org/namespaces/inkscape"
   width="256"
   height="256"
   viewBox="0 0 256 256"
   id="svg2"
   version="1.1"
   inkscape:version="0.91 r13725"
   sodipodi:docname="SnoopX.svg">
  <defs
     id="defs4">
    <clipPath
       id="clipPath4150"
       clipPathUnits="userSpaceOnUse">
      <path
         inkscape:connector-curvature="0"
         id="path4152"
         d="M 0,560 960,560 960,0 0,0 0,560 Z" />
    </clipPath>
    <clipPath
       id="clipPath4202"
       clipPathUnits="userSpaceOnUse">
      <path
         inkscape:connector-curvature="0"
         id="path4204"
         d="M 0,560 960,560 960,0 0,0 0,560 Z" />
    </clipPath>
  </defs>
  <sodipodi:namedview
     id="base"
     pagecolor="#ffffff"
     bordercolor="#666666"
     borderopacity="1.0"
     inkscape:pageopacity="0.0"
     inkscape:pageshadow="2"
     inkscape:zoom="0.49497475"
     inkscape:cx="-2.008576"
     inkscape:cy="164.00312"
     inkscape:document-units="px"
     inkscape:current-layer="layer1"
     showgrid="false"
     units="px"
     inkscape:window-width="1440"
     inkscape:window-height="841"
     inkscape:window-x="-8"
     inkscape:window-y="-8"
     inkscape:window-maximized="1" />
  <metadata
     id="metadata7">
    <rdf:RDF>
      <cc:Work
         rdf:about="">
        <dc:format>image/svg+xml</dc:format>
        <dc:type
           rdf:resource="http://purl.org/dc/dcmitype/StillImage" />
        <dc:title></dc:title>
      </cc:Work>
    </rdf:RDF>
  </metadata>
  <g
     inkscape:label="Layer 1"
     inkscape:groupmode="layer"
     id="layer1"
     transform="translate(0,-796.36213)">
    <g
       transform="matrix(3.2093628,0,0,-3.2093628,-734.79776,1983.9079)"
       inkscape:label="SnoopX"
       id="g4196">
      <g
         id="g4198">
        <g
           clip-path="url(#clipPath4202)"
           id="g4200">
          <g
             transform="translate(257.1738,324.3032)"
             id="g4206">
            <path
               inkscape:connector-curvature="0"
               id="path4208"
               style="fill:#ffffff;fill-opacity:1;fill-rule:nonzero;stroke:none"
               d="m 0,0 c -0.172,0 -0.343,0.005 -0.51,0.014 -0.608,0.032 -1.689,0.04 -2.941,0.048 -7.091,0.048 -10.759,0.249 -12.424,1.254 -1.803,1.089 -2.916,2.451 -3.307,4.048 -0.678,2.768 0.926,5.404 2.476,7.952 l 0.493,0.814 c 0.795,1.329 1.582,2.088 2.215,2.698 0.699,0.673 1.121,1.08 1.509,2.208 0.294,0.856 0.186,2.176 0.082,3.453 -0.108,1.319 -0.22,2.682 0.019,4.005 2.412,13.361 15.2,18.102 25.418,18.102 4.469,0 8.73,-0.844 12.323,-2.441 C 36.803,37.067 42.762,20.26 42.604,18.136 42.486,16.545 42.542,14.768 42.601,12.887 42.682,10.308 42.766,7.642 42.38,5.273 L 42.181,4.049 40.995,3.684 C 40.56,3.55 40.072,3.482 39.544,3.482 l 0,0 c -3.051,0 -7.776,2.314 -12.345,4.553 -1.933,0.947 -3.783,1.853 -5.106,2.369 C 21.08,9.492 20.243,8.682 19.486,7.949 16.587,5.144 14.672,3.29 9.094,1.991 8.448,1.84 7.664,1.609 6.834,1.364 4.67,0.725 2.218,0 0,0" />
          </g>
          <g
             transform="translate(281.715,364.631)"
             id="g4210">
            <path
               inkscape:connector-curvature="0"
               id="path4212"
               style="fill:#e3856e;fill-opacity:1;fill-rule:nonzero;stroke:none"
               d="m 0,0 c -11.636,5.171 -32.05,1.932 -34.961,-14.189 -0.431,-2.385 0.6,-5.492 -0.178,-7.753 -0.959,-2.788 -2.376,-2.735 -3.899,-5.282 -2.246,-3.757 -4.91,-7.317 -0.344,-10.075 1.972,-1.192 11.773,-0.875 14.438,-1.018 2.799,-0.15 6.57,1.352 9.043,1.928 6.762,1.575 7.261,3.758 13.028,8.758 l -0.138,0 c 3.954,-1 15.316,-8.197 18.876,-7.101 0.621,3.812 -0.09,8.733 0.204,12.689 C 16.148,-20.974 10.94,-4.862 0,0" />
          </g>
          <g
             transform="translate(254.7368,291.5635)"
             id="g4214">
            <path
               inkscape:connector-curvature="0"
               id="path4216"
               style="fill:#ffffff;fill-opacity:1;fill-rule:nonzero;stroke:none"
               d="m 0,0 c -4.636,0 -9.119,4.072 -10.774,8.008 -1.286,3.058 -0.891,5.968 1.083,7.983 1.418,1.448 7.005,1.465 7.062,1.465 1.361,0 2.115,-0.158 2.692,-0.564 0.396,-0.278 0.584,-0.55 1.102,-1.514 0.719,1.964 1.574,3.803 2.74,5.667 0.675,1.08 1.784,2.229 2.958,3.447 1.056,1.094 3.022,3.133 3.133,3.893 l 0.12,1.46 1.427,0.319 6.32,1.442 0.054,-2.451 C 17.962,27.11 15.943,25.337 13.99,23.622 13.448,23.146 12.833,22.606 12.625,22.349 11.24,20.636 11.205,19.776 11.127,17.893 11.094,17.091 11.057,16.182 10.908,15.068 10.3,10.517 8.381,2.56 2.366,0.402 1.622,0.135 0.826,0 0,0" />
          </g>
          <g
             transform="translate(266.7249,319.7778)"
             id="g4218">
            <path
               inkscape:connector-curvature="0"
               id="path4220"
               style="fill:#5f3227;fill-opacity:1;fill-rule:nonzero;stroke:none"
               d="m 0,0 c -0.189,-2.294 -4.923,-5.887 -6.388,-8.229 -1.837,-2.938 -2.868,-5.877 -3.836,-9.337 -0.174,-0.724 -2.593,4.426 -2.852,4.608 -0.723,0.509 -6.568,-0.045 -7.174,-0.664 -4.52,-4.616 4.176,-14.38 9.953,-12.307 4.912,1.762 6.681,8.902 7.235,13.048 0.495,3.708 -0.343,5.197 2.144,8.273 0.996,1.232 4.883,3.875 4.847,5.505 C 2.619,0.598 1.31,0.299 0,0 -0.03,-0.368 1.31,0.299 0,0" />
          </g>
        </g>
      </g>
    </g>
  </g>
</svg>
